<?xml version="1.0" standalone="no"?>
<!DOCTYPE svg PUBLIC "-//W3C//DTD SVG 20010904//EN"
 "http://www.w3.org/TR/2001/REC-SVG-20010904/DTD/svg10.dtd">
<svg version="1.0" xmlns="http://www.w3.org/2000/svg"
 width="200.000000pt" height="200.000000pt" viewBox="0 0 200.000000 200.000000"
 preserveAspectRatio="xMidYMid meet">
<metadata>
Created by potrace 1.14, written by Peter Selinger 2001-2017
</metadata>
<g transform="translate(0.000000,200.000000) scale(0.100000,-0.100000)"
fill="#000000" stroke="none">
<path d="M850 1984 c-189 -48 -343 -192 -411 -384 -21 -60 -24 -85 -27 -307
-3 -176 -7 -243 -15 -244 -7 -1 -47 -2 -89 -2 -54 -2 -82 -7 -93 -17 -13 -13
-15 -74 -17 -425 -2 -326 0 -417 10 -442 10 -21 33 -43 74 -67 33 -20 61 -36
63 -36 2 0 28 -14 56 -31 48 -28 58 -30 118 -25 36 3 118 8 181 11 141 8 161
11 172 27 10 14 5 108 -8 147 -6 22 -5 23 24 16 40 -8 201 -9 240 -1 24 6 47
-4 138 -59 l109 -66 100 5 c304 17 299 17 316 37 11 12 16 31 13 54 -1 19 -49
180 -105 358 l-102 322 -2 315 c-3 352 -8 389 -72 520 -67 138 -219 258 -371
294 -78 18 -231 18 -302 0z m117 -138 c7 -22 16 -51 19 -65 17 -82 17 -80 -25
-121 -62 -60 -78 -147 -41 -220 23 -45 55 -78 88 -91 16 -6 22 -17 22 -40 l0
-32 -127 6 c-71 3 -153 11 -183 17 -30 6 -65 13 -78 16 -12 2 -48 14 -79 25
l-56 21 6 77 c16 210 154 382 349 436 76 20 89 17 105 -29z m263 -6 c151 -77
245 -224 257 -402 6 -76 5 -76 -23 -91 -28 -14 -207 -57 -239 -57 -27 0 -19
66 14 108 72 93 59 207 -34 278 -20 15 -35 37 -39 57 -4 18 -17 58 -30 90
l-24 58 31 -7 c18 -3 57 -19 87 -34z m-71 -215 c16 -8 36 -31 46 -52 16 -33
16 -41 4 -77 -8 -21 -26 -48 -41 -59 -76 -57 -190 14 -172 108 14 78 92 117
163 80z m-479 -368 c109 -22 174 -28 322 -28 185 -1 350 21 437 57 42 17 51
18 51 1 0 -28 -134 -69 -280 -86 -73 -9 -389 -7 -440 2 -14 3 -44 8 -67 11
-51 8 -163 44 -180 58 -7 6 -13 16 -13 23 0 10 12 9 48 -5 26 -10 81 -25 122
-33z m-31 -81 c39 -9 97 -19 129 -22 31 -3 66 -7 77 -9 11 -2 54 -4 96 -4 l75
-1 1 -71 0 -70 -108 2 c-60 2 -112 0 -116 -4 -12 -12 -11 -77 2 -87 12 -10 80
-17 177 -19 44 -1 48 -3 44 -23 -3 -22 -6 -23 -113 -20 -85 2 -112 -1 -116
-11 -6 -16 -2 -76 6 -83 7 -7 67 -13 157 -17 l65 -3 1 -32 c0 -35 -1 -35 -86
-32 -114 4 -214 15 -231 26 -4 2 -11 18 -14 35 -11 48 -84 278 -94 297 -6 11
-23 17 -48 17 l-38 0 -3 88 -3 88 34 -15 c19 -7 66 -21 106 -30z m829 -432
c-15 -15 -143 -50 -217 -59 l-51 -6 0 35 c0 30 4 36 23 37 12 0 29 2 37 4 8 1
33 6 54 9 22 4 45 11 51 16 14 12 19 87 6 95 -5 3 -41 -2 -81 -10 -93 -19 -90
-20 -90 16 0 16 3 28 8 25 4 -2 30 0 57 5 28 5 61 11 74 14 13 2 26 7 29 10 7
7 12 86 6 96 -2 3 -31 0 -66 -7 -35 -8 -74 -14 -88 -14 -24 0 -25 3 -24 55 1
30 2 61 3 69 1 10 24 18 74 26 39 6 101 21 137 33 l65 22 3 -229 c2 -176 -1
-233 -10 -242z m-1223 224 c6 -31 55 -236 105 -443 73 -302 69 -280 52 -292
-13 -8 -14 -18 -6 -59 8 -42 12 -49 32 -48 19 0 22 -4 22 -38 0 -21 -2 -38 -4
-38 -8 0 -191 113 -206 127 -13 12 -15 71 -15 413 0 360 4 446 20 378z m1103
5 c-6 -31 -86 -44 -314 -48 -194 -4 -227 -1 -222 23 3 13 34 16 213 18 116 1
226 7 245 12 57 16 82 14 78 -5z m2 -157 c0 -26 -140 -47 -325 -50 -146 -3
-209 5 -213 26 -3 16 12 18 180 18 176 0 233 3 308 19 39 9 50 6 50 -13z m124
-153 c-11 -50 -73 -167 -106 -203 -61 -66 -147 -122 -210 -136 -28 -5 -30 -4
-23 12 22 54 45 140 56 212 11 72 15 82 33 83 53 1 197 34 226 50 25 14 31 10
24 -18z m-547 -45 c40 -1 77 -4 82 -7 12 -8 -14 -187 -37 -255 l-17 -51 -49 3
c-87 4 -94 12 -137 152 -21 69 -41 137 -44 151 l-6 26 68 -9 c37 -4 101 -9
140 -10z m450 -445 c3 -24 2 -43 -2 -43 -11 0 -167 92 -163 95 2 2 32 19 68
37 l65 34 13 -40 c7 -23 15 -60 19 -83z"/>
<path d="M260 743 c0 -15 4 -35 10 -43 8 -12 10 -12 15 2 9 24 2 61 -12 66 -9
2 -13 -6 -13 -25z"/>
<path d="M269 508 c-20 -37 -14 -138 10 -186 39 -76 84 -45 84 58 1 107 -61
190 -94 128z"/>
<path d="M262 255 c2 -21 9 -40 16 -43 18 -6 15 53 -4 69 -14 11 -15 8 -12
-26z"/>
</g>
</svg>
